HIERARCHY
ROOT Hips
{
	OFFSET 62.890800 8.863803 43.568401
	CHANNELS 6 Xposition Yposition Zposition Zrotation Xrotation Yrotation
	JOINT Chest
	{
		OFFSET -0.160400 1.630001 7.806301
		CHANNELS 6 Xposition Yposition Zposition Zrotation Xrotation Yrotation
		JOINT Chest2
		{
			OFFSET 0.000000 0.000000 3.197998
			CHANNELS 6 Xposition Yposition Zposition Zrotation Xrotation Yrotation
			JOINT Neck
			{
				OFFSET 0.000000 0.000001 7.440701
				CHANNELS 6 Xposition Yposition Zposition Zrotation Xrotation Yrotation
				JOINT Head
				{
					OFFSET 0.000000 0.000000 2.173901
					CHANNELS 6 Xposition Yposition Zposition Zrotation Xrotation Yrotation
					End Site
					{
						OFFSET 0.000000 0.000001 10.420303
					}
				}
			}
			JOINT LeftCollar
			{
				OFFSET 2.426399 -1.880099 4.759399
				CHANNELS 6 Xposition Yposition Zposition Zrotation Xrotation Yrotation
				JOINT LeftShoulder
				{
					OFFSET 4.420197 0.000000 0.000000
					CHANNELS 6 Xposition Yposition Zposition Zrotation Xrotation Yrotation
					JOINT LeftElbow
					{
						OFFSET 0.000000 -0.000001 -10.347099
						CHANNELS 6 Xposition Yposition Zposition Zrotation Xrotation Yrotation
						JOINT LeftWrist
						{
							OFFSET 0.000000 -0.000001 -12.496300
							CHANNELS 6 Xposition Yposition Zposition Zrotation Xrotation Yrotation
							End Site
							{
								OFFSET 0.000000 0.000000 -2.173901
							}
						}
					}
				}
			}
			JOINT RightCollar
			{
				OFFSET -2.781502 -1.903799 5.072601
				CHANNELS 6 Xposition Yposition Zposition Zrotation Xrotation Yrotation
				JOINT RightShoulder
				{
					OFFSET -4.012100 0.000000 0.000000
					CHANNELS 6 Xposition Yposition Zposition Zrotation Xrotation Yrotation
					JOINT RightElbow
					{
						OFFSET 0.000000 -0.000001 -10.346600
						CHANNELS 6 Xposition Yposition Zposition Zrotation Xrotation Yrotation
						JOINT RightWrist
						{
							OFFSET 0.000000 -0.000001 -12.562599
							CHANNELS 6 Xposition Yposition Zposition Zrotation Xrotation Yrotation
							End Site
							{
								OFFSET 0.000000 0.000000 -2.173901
							}
						}
					}
				}
			}
		}
	}
	JOINT LeftHip
	{
		OFFSET 2.047997 -0.047200 -2.693199
		CHANNELS 6 Xposition Yposition Zposition Zrotation Xrotation Yrotation
		JOINT LeftKnee
		{
			OFFSET 0.000000 -0.000001 -18.824400
			CHANNELS 6 Xposition Yposition Zposition Zrotation Xrotation Yrotation
			JOINT LeftAnkle
			{
				OFFSET 0.000000 -0.000002 -19.078199
				CHANNELS 6 Xposition Yposition Zposition Zrotation Xrotation Yrotation
				End Site
				{
					OFFSET 0.000000 -9.342100 0.000001
				}
			}
		}
	}
	JOINT RightHip
	{
		OFFSET -2.129898 -0.022300 -2.538300
		CHANNELS 6 Xposition Yposition Zposition Zrotation Xrotation Yrotation
		JOINT RightKnee
		{
			OFFSET 0.000000 -0.000001 -18.644600
			CHANNELS 6 Xposition Yposition Zposition Zrotation Xrotation Yrotation
			JOINT RightAnkle
			{
				OFFSET 0.000000 -0.000002 -18.801399
				CHANNELS 6 Xposition Yposition Zposition Zrotation Xrotation Yrotation
				End Site
				{
					OFFSET 0.000000 -8.914600 0.000001
				}
			}
		}
	}
}
MOTION
Frames: 4
Frame Time: 0.041667
-19.217323 -48.800709 30.784554 -310.311367 2.262177 -11.960013 -0.160406 1.630002 7.806307 67.820486 17.502064 0.896950 0.000009 -0.000004 3.197997 -15.403726 -1.310214 -0.400044 -0.000003 0.000002 7.440695 -13.222365 3.703282 11.354033 -0.000014 0.000001 2.173906 -3.422139 -1.044780 -4.543104 2.426401 -1.880098 4.759396 -176.235669 171.718496 -168.878148 4.420194 -0.000005 0.000004 -16.258459 33.776163 -45.343782 0.000003 -0.000002 -10.347095 335.005752 -46.910214 -1.102376 0.000006 0.000003 -12.496292 139.984331 16.120288 53.424527 -2.781497 -1.903800 5.072594 -140.105307 -200.128504 162.506825 -4.012096 -0.000000 0.000009 31.100034 -14.066052 476.242863 -0.000001 0.000000 -10.346597 -59.702158 -9.575717 -13.249560 -0.000001 0.000003 -12.562597 1333.117961 -179.355945 227.784022 2.047992 -0.047197 -2.693192 -246.925873 -16.834427 69.938501 -0.000001 -0.000006 -18.824400 99.800136 126.491101 -169.764010 0.000000 -0.000001 -19.078201 294.759409 26.359952 29.129920 -2.129895 -0.022293 -2.538294 -598.624225 39.170097 -23.798935 -0.000001 -0.000004 -18.644594 511.570678 173.220113 99.633083 0.000005 -0.000002 -18.801403 -66.797488 -20.926670 -58.323573
-19.194611 -48.795605 30.766251 -310.252682 2.347639 -11.907168 -0.160394 1.629998 7.806306 67.702481 17.494350 0.960185 0.000005 -0.000005 3.198000 -15.364297 -1.326414 -0.397814 -0.000016 0.000004 7.440704 -13.249294 3.715401 11.361050 -0.000002 -0.000002 2.173909 -3.420123 -1.069685 -4.558121 2.426392 -1.880094 4.759401 -176.155428 171.744109 -168.924635 4.420202 0.000001 0.000005 -16.488449 33.852371 -45.252653 0.000005 0.000000 -10.347089 334.909010 -46.940533 -1.282794 -0.000009 -0.000001 -12.496303 140.218320 16.134382 53.195958 -2.781508 -1.903797 5.072601 -140.071443 -200.202284 162.549555 -4.012095 0.000000 -0.000005 31.153483 -14.156200 476.196144 0.000003 0.000005 -10.346590 -59.791380 -9.556327 -13.285675 -0.000003 0.000002 -12.562595 1333.264073 -179.333816 227.729326 2.047994 -0.047204 -2.693197 -246.933796 -16.852040 70.149547 -0.000002 -0.000002 -18.824398 99.277681 126.355262 -169.393008 -0.000002 -0.000004 -19.078201 295.157391 26.362488 28.824577 -2.129891 -0.022299 -2.538294 -598.752305 39.214739 -23.661141 0.000007 -0.000004 -18.644596 511.558383 173.033294 99.568292 -0.000000 0.000002 -18.801388 -66.562953 -20.923523 -58.353468
-19.169403 -48.790096 30.746059 -310.220143 2.451898 -11.845720 -0.160400 1.630004 7.806309 67.676472 17.450923 1.029355 0.000004 -0.000008 3.197993 -15.377920 -1.315010 -0.399272 -0.000000 0.000005 7.440702 -13.277796 3.733507 11.354880 -0.000008 0.000001 2.173907 -3.415444 -1.100650 -4.550389 2.426413 -1.880099 4.759397 -176.148776 171.740968 -168.981653 4.420200 -0.000001 0.000002 -16.567650 33.801127 -45.175141 0.000002 -0.000009 -10.347095 334.772269 -46.954935 -1.430274 -0.000005 0.000000 -12.496301 140.358038 16.143868 53.061588 -2.781499 -1.903798 5.072605 -140.117697 -200.170223 162.593323 -4.012094 0.000005 0.000003 31.215938 -14.144826 476.102052 -0.000001 0.000003 -10.346600 -59.910342 -9.539505 -13.334608 0.000013 0.000002 -12.562595 1333.436740 -179.316016 227.693877 2.047999 -0.047197 -2.693196 -246.884182 -16.842666 70.376971 0.000007 0.000003 -18.824402 98.442956 126.246512 -168.800762 -0.000002 0.000001 -19.078199 295.733394 26.385180 28.374050 -2.129895 -0.022296 -2.538295 -598.851425 39.251123 -23.551981 -0.000007 -0.000003 -18.644598 511.530079 172.829249 99.538423 -0.000004 0.000003 -18.801401 -66.300079 -20.919333 -58.392769
-19.141212 -48.783897 30.723347 -310.212494 2.571289 -11.791825 -0.160398 1.630007 7.806303 67.653208 17.385439 1.120938 -0.000002 -0.000008 3.197999 -15.386152 -1.311232 -0.400925 -0.000000 0.000009 7.440701 -13.282165 3.778759 11.347768 -0.000001 -0.000001 2.173903 -3.411747 -1.117278 -4.530332 2.426410 -1.880095 4.759391 -176.159554 171.742033 -169.044259 4.420195 -0.000001 0.000009 -16.523512 33.718431 -45.097933 0.000002 0.000002 -10.347094 334.427509 -46.982013 -1.687399 0.000004 0.000001 -12.496293 140.550335 16.142623 52.933396 -2.781500 -1.903793 5.072601 -140.134254 -200.150484 162.631544 -4.012101 0.000002 -0.000009 31.246415 -14.135278 475.973262 0.000011 0.000001 -10.346598 -60.037172 -9.533727 -13.397273 0.000005 0.000008 -12.562597 1333.611374 -179.302178 227.663906 2.047994 -0.047190 -2.693200 -246.757577 -16.760748 70.617415 -0.000002 -0.000005 -18.824400 97.312021 126.161053 -168.009758 -0.000005 -0.000003 -19.078197 296.442258 26.432371 27.803986 -2.129899 -0.022298 -2.538297 -599.012890 39.311946 -23.384973 0.000003 -0.000005 -18.644590 511.577836 172.576286 99.514661 -0.000007 0.000005 -18.801395 -66.075134 -20.885788 -58.462389
